# xmcd CD database file
#
# Track frame offsets:
#	150
#	18152
#	31054
#	49431
#	67808
#	82585
#	100062
#	114089
#	125941
#	140493
#	157370
#	168697
#	176574
#
# Disc length: 2607 seconds
#
# Revision: 0
# Processed by: cddbd v1.5.2PL0 Copyright (c) Steve Scherf et al.
# Submitted via: CDex 1.70beta2
#
DISCID=a70a2d0d
DTITLE=Nina Hagen - Personal Jesus
DYEAR=2010
DGENRE=Blues
TTITLE0=God's radar
TTITLE1=I'll live again
TTITLE2=Personal Jesus
TTITLE3=Nobody's fault but mine
TTITLE4=Down at the cross
TTITLE5=Just a little talk with Jesus
TTITLE6=Mean old world
TTITLE7=Help me
TTITLE8=Take Jesus with you
TTITLE9=On the battlefield
TTITLE10=Run on
TTITLE11=All you fascists bound to lose
TTITLE12=Sometimes I ring up heaven
EXTD=YEAR: 2010
EXTT0=
EXTT1=
EXTT2=
EXTT3=
EXTT4=
EXTT5=
EXTT6=
EXTT7=
EXTT8=
EXTT9=
EXTT10=
EXTT11=
EXTT12=
PLAYORDER=
